<?xml version="1.0" standalone="no"?>
<!DOCTYPE
  svg
  PUBLIC "-//W3C//DTD SVG 1.1//EN" "http://www.w3.org/Graphics/SVG/1.1/DTD/svg11.dtd"
><svg
  t="1640679499089"
  class="icon"
  viewBox="0 0 1024 1024"
  version="1.1"
  xmlns="http://www.w3.org/2000/svg"
  p-id="181926"
  xmlns:xlink="http://www.w3.org/1999/xlink"
  width="200"
  height="200"
>
  <defs>
    <style type="text/css"></style>
  </defs>
  <path
    d="M798.208 147.968h-37.888v-7.168c0-28.16-24.576-51.2-54.784-51.2h-33.28v-26.624c0-22.016-17.92-39.936-39.936-39.936H398.848c-22.016 0-39.936 17.92-39.936 39.936v26.624h-40.448c-30.208 0-54.784 23.04-54.784 51.2v7.168h-37.888c-46.08 0-83.456 37.376-83.456 83.456v677.888c0 46.08 37.376 83.456 83.456 83.456h572.416c46.08 0 83.456-37.376 83.456-83.456V231.936c0.512-46.592-37.376-83.968-83.456-83.968z m-483.328-6.144c0.512-0.512 1.536-1.024 3.584-1.024h62.976c15.872 0 28.672-12.8 28.672-28.672v-38.4h210.944v38.4c0 15.872 12.8 28.672 28.672 28.672h55.808c1.536 0 3.072 0.512 3.584 1.024v65.024c-0.512 0-1.024 0.512-2.048 0.512H317.44c-1.024 0-1.536 0-2.048-0.512V141.824z m516.096 767.488c0 17.92-14.336 32.256-32.256 32.256H225.792c-17.92 0-32.256-14.336-32.256-32.256V231.936c0-17.92 14.336-32.256 32.256-32.256h37.888v9.216c0 13.312 5.632 26.112 15.36 35.84 10.24 9.728 25.088 15.36 39.424 14.336h388.608c13.824 0 27.648-5.12 37.376-14.336 10.24-9.728 15.36-22.016 15.36-35.84V199.68h37.888c17.92 0 32.256 14.336 32.256 32.256v677.376z"
    p-id="181927"
  ></path>
  <path
    d="M635.392 485.888l-177.152 177.152-69.632-69.632c-10.24-10.24-26.112-10.24-36.352 0s-10.24 26.112 0 36.352L440.32 717.312c5.12 5.12 11.776 7.68 17.92 7.68s13.312-2.56 17.92-7.68l195.072-195.072c10.24-10.24 10.24-26.112 0-36.352-9.728-10.24-25.6-10.24-35.84 0z"
    p-id="181928"
  ></path>
</svg>